<svg xmlns="http://www.w3.org/2000/svg" width="269" height="204" viewBox="0 0 269 204">
  <g id="Group_109" data-name="Group 109" transform="translate(-200 -617)">
    <circle id="Ellipse_133" data-name="Ellipse 133" cx="74.5" cy="74.5" r="74.5" transform="translate(200 617)" fill="#ffdec4"/>
    <g id="Group_81" data-name="Group 81" transform="translate(1059.251 304) rotate(90)">
      <circle id="Ellipse_88" data-name="Ellipse 88" cx="7.5" cy="7.5" r="7.5" transform="translate(438 686.251)" fill="#89c5cc"/>
      <circle id="Ellipse_89" data-name="Ellipse 89" cx="7.5" cy="7.5" r="7.5" transform="translate(406 686.251)" fill="#89c5cc"/>
      <circle id="Ellipse_92" data-name="Ellipse 92" cx="7.5" cy="7.5" r="7.5" transform="translate(470 686.251)" fill="#89c5cc"/>
      <circle id="Ellipse_93" data-name="Ellipse 93" cx="7.5" cy="7.5" r="7.5" transform="translate(502 686.251)" fill="#89c5cc"/>
      <circle id="Ellipse_94" data-name="Ellipse 94" cx="7.5" cy="7.5" r="7.5" transform="translate(438 718.251)" fill="#89c5cc"/>
      <circle id="Ellipse_95" data-name="Ellipse 95" cx="7.5" cy="7.5" r="7.5" transform="translate(406 718.251)" fill="#89c5cc"/>
      <circle id="Ellipse_98" data-name="Ellipse 98" cx="7.5" cy="7.5" r="7.5" transform="translate(470 718.251)" fill="#89c5cc"/>
      <circle id="Ellipse_99" data-name="Ellipse 99" cx="7.5" cy="7.5" r="7.5" transform="translate(502 718.251)" fill="#89c5cc"/>
      <circle id="Ellipse_104" data-name="Ellipse 104" cx="7.5" cy="7.5" r="7.5" transform="translate(438 750.251)" fill="#89c5cc"/>
      <circle id="Ellipse_105" data-name="Ellipse 105" cx="7.5" cy="7.5" r="7.5" transform="translate(406 750.251)" fill="#89c5cc"/>
      <circle id="Ellipse_108" data-name="Ellipse 108" cx="7.5" cy="7.5" r="7.5" transform="translate(470 750.251)" fill="#89c5cc"/>
      <circle id="Ellipse_109" data-name="Ellipse 109" cx="7.5" cy="7.5" r="7.5" transform="translate(502 750.251)" fill="#89c5cc"/>
      <ellipse id="Ellipse_115" data-name="Ellipse 115" cx="7.5" cy="8.5" rx="7.5" ry="8.5" transform="translate(438 590.251)" fill="#89c5cc"/>
      <ellipse id="Ellipse_116" data-name="Ellipse 116" cx="7.5" cy="8.5" rx="7.5" ry="8.5" transform="translate(406 590.251)" fill="#89c5cc"/>
      <ellipse id="Ellipse_119" data-name="Ellipse 119" cx="7.5" cy="8.5" rx="7.5" ry="8.5" transform="translate(470 590.251)" fill="#89c5cc"/>
      <ellipse id="Ellipse_120" data-name="Ellipse 120" cx="7.5" cy="8.5" rx="7.5" ry="8.5" transform="translate(502 590.251)" fill="#89c5cc"/>
      <ellipse id="Ellipse_121" data-name="Ellipse 121" cx="7.5" cy="8" rx="7.5" ry="8" transform="translate(438 623.251)" fill="#89c5cc"/>
      <ellipse id="Ellipse_122" data-name="Ellipse 122" cx="7.5" cy="8" rx="7.5" ry="8" transform="translate(406 623.251)" fill="#89c5cc"/>
      <ellipse id="Ellipse_125" data-name="Ellipse 125" cx="7.5" cy="8" rx="7.5" ry="8" transform="translate(470 623.251)" fill="#89c5cc"/>
      <ellipse id="Ellipse_126" data-name="Ellipse 126" cx="7.5" cy="8" rx="7.5" ry="8" transform="translate(502 623.251)" fill="#89c5cc"/>
      <circle id="Ellipse_127" data-name="Ellipse 127" cx="7.5" cy="7.5" r="7.5" transform="translate(438 654.251)" fill="#89c5cc"/>
      <circle id="Ellipse_128" data-name="Ellipse 128" cx="7.5" cy="7.5" r="7.5" transform="translate(406 654.251)" fill="#89c5cc"/>
      <circle id="Ellipse_131" data-name="Ellipse 131" cx="7.5" cy="7.5" r="7.5" transform="translate(470 654.251)" fill="#89c5cc"/>
      <circle id="Ellipse_132" data-name="Ellipse 132" cx="7.5" cy="7.5" r="7.5" transform="translate(502 654.251)" fill="#89c5cc"/>
    </g>
  </g>
</svg>
