<?xml version="1.0" standalone="no"?>
<!DOCTYPE svg PUBLIC "-//W3C//DTD SVG 20010904//EN"
 "http://www.w3.org/TR/2001/REC-SVG-20010904/DTD/svg10.dtd">
<svg version="1.0" xmlns="http://www.w3.org/2000/svg"
 width="384.000000pt" height="384.000000pt" viewBox="0 0 384.000000 384.000000"
 preserveAspectRatio="xMidYMid meet">
<metadata>
Created by potrace 1.11, written by Peter Selinger 2001-2013
</metadata>
<g transform="translate(0.000000,384.000000) scale(0.100000,-0.100000)"
fill="#000000" stroke="none">
<path d="M1685 3808 c-197 -21 -430 -90 -630 -188 -462 -225 -820 -631 -978
-1110 -67 -203 -68 -216 -64 -615 1 -198 6 -373 10 -390 40 -158 83 -280 147
-410 62 -130 156 -279 227 -362 26 -31 41 -58 37 -64 -4 -7 -3 -9 3 -6 5 3 59
-42 119 -101 60 -59 136 -128 169 -152 33 -25 61 -48 63 -52 2 -5 8 -8 13 -8
20 0 119 -72 113 -82 -4 -7 -3 -8 4 -4 11 7 130 -49 143 -67 3 -5 8 -8 10 -6
11 6 48 -14 43 -23 -4 -7 -2 -8 5 -4 16 10 53 -3 45 -16 -4 -6 -2 -8 3 -5 6 4
44 -5 84 -19 102 -36 238 -73 282 -77 9 -1 17 -5 17 -10 0 -4 5 -5 10 -2 6 3
15 3 21 -1 27 -16 466 -28 539 -14 25 4 65 11 90 13 54 6 136 23 209 44 29 8
61 17 70 18 9 2 17 4 19 5 1 2 5 3 10 5 4 1 14 5 22 8 67 28 125 45 133 40 6
-3 7 -1 3 5 -4 7 -2 12 4 12 24 0 210 100 310 168 116 77 138 94 218 167 30
28 59 49 64 48 4 -2 7 0 6 5 -5 13 45 61 56 55 6 -3 8 -3 4 2 -10 11 11 37 23
29 5 -3 8 -2 7 3 -4 11 73 113 84 113 4 0 8 4 8 10 0 9 64 106 80 120 6 6 32
52 90 162 26 49 49 86 52 82 3 -3 6 1 5 8 -1 30 3 49 11 45 4 -3 8 5 9 16 1
12 15 60 31 106 36 99 44 122 46 136 10 66 31 165 35 165 15 0 21 419 9 525
-11 93 -27 177 -41 226 -8 25 -13 56 -13 71 1 15 -2 24 -6 22 -4 -3 -12 14
-18 37 -35 130 -143 347 -246 496 -78 113 -87 124 -199 241 -160 167 -332 292
-550 397 -278 135 -538 193 -855 192 -74 -1 -171 -5 -215 -9z"/>
</g>
</svg>
